<?xml version="1.0" encoding="UTF-8" standalone="no"?><!DOCTYPE svg PUBLIC "-//W3C//DTD SVG 1.1//EN" "http://www.w3.org/Graphics/SVG/1.1/DTD/svg11.dtd"><svg width="100%" height="100%" viewBox="0 0 3681 2518" version="1.1" xmlns="http://www.w3.org/2000/svg" xmlns:xlink="http://www.w3.org/1999/xlink" xml:space="preserve" xmlns:serif="http://www.serif.com/" style="fill-rule:evenodd;clip-rule:evenodd;stroke-linejoin:round;stroke-miterlimit:2;"><path d="M3159.57,1051.15c50.728,53.201 107.323,61.691 169.787,25.468c-26.212,-42.007 -32.453,-87.698 -25.468,-135.829l-121.681,-0c5.392,42.295 3.941,81.678 -22.638,110.361Z" style="fill:#ffb8b8;fill-rule:nonzero;"/><path d="M3360.49,2443.4l65.087,-33.954l28.296,-359.383l-0,-189.596l-149.979,-2.829l42.445,189.595l14.151,396.167Z" style="fill:#ffb8b8;fill-rule:nonzero;"/><path d="M3171.83,2443.4l-65.083,-33.954l-28.296,-359.383l-0,-189.596l149.975,-2.829l-42.446,189.595l-14.15,396.167Z" style="fill:#ffb8b8;fill-rule:nonzero;"/><path d="M3071.85,1900.08l158.467,-14.149l25.468,-144.319l31.128,141.489l172.617,-11.319c3.771,-68.758 -5.808,-139.524 -28.298,-212.233l-379.191,-8.49l19.809,249.021Z" style="fill:#2f2e41;fill-rule:nonzero;"/><path d="M2907.14,1358.09l-190.619,-146.784c-1.979,-1.524 -4.154,-2.773 -6.467,-3.714l-27.706,-11.273c-22.253,-9.053 -64.639,-39.167 -43.967,-70.175c16.667,-25 80.464,19.785 88.312,36.377c2.48,5.22 6.549,9.524 11.622,12.294l38.738,21.227c0.942,0.517 1.913,0.978 2.909,1.381l147.484,59.779c8.287,3.359 17.708,2.509 25.26,-2.28l26.739,-16.954c4.439,-2.815 9.589,-4.31 14.846,-4.31c13.184,0 24.633,9.404 27.196,22.336l8.837,44.601c2.616,13.204 -4.743,26.5 -17.321,31.295l-79.073,30.139c-8.998,3.43 -19.161,1.936 -26.79,-3.939Z" style="fill:#ffb8b8;fill-rule:nonzero;"/><path d="M2942.55,1251.14c52.776,-14.153 47.235,59.579 87.5,95.833l79.166,-62.5l-45.855,-222.006c-24.924,7.121 -45.089,25.586 -54.372,49.789l-66.439,138.884Z" style="fill:#402596;fill-rule:nonzero;"/><path d="M3040.72,1665.21l398.999,0c-64.574,-174.014 -58.287,-352.987 -3.305,-535.367c1.897,-6.222 -0.924,-12.976 -6.682,-16.001l-114.523,-59.864c-44.956,29.252 -93.272,20.262 -144.319,-19.809l-124.51,33.958c33.895,203.57 34.858,402.959 -5.66,597.083Z" style="fill:#402596;fill-rule:nonzero;"/><path d="M3140.49,2509.86l-166.278,7.049c-14.92,0.632 -28.065,-10.216 -30.275,-24.985c-2.232,-14.923 7.387,-29.261 22.043,-32.853l28.203,-6.914l110.849,-64.25c16.423,17.006 39.037,31.385 66.682,43.63l0.324,45.174c0.126,17.634 -13.929,32.402 -31.548,33.149Z" style="fill:#2f2e41;fill-rule:nonzero;"/><path d="M3390.44,2507.34l166.279,7.049c14.92,0.632 28.065,-10.216 30.274,-24.985c2.233,-14.923 -7.387,-29.261 -22.042,-32.853l-28.204,-6.914l-110.849,-64.25c-16.422,17.006 -39.036,31.385 -66.682,43.63l-0.323,45.174c-0.126,17.634 13.928,32.403 31.547,33.149Z" style="fill:#2f2e41;fill-rule:nonzero;"/><circle cx="3230.32" cy="901.172" r="90.553" style="fill:#ffb8b8;"/><path d="M3371.81,1636.91l-29.916,58.17c-2.976,5.787 -4.528,12.201 -4.528,18.709c-0,17.013 10.613,32.328 26.543,38.302c4.593,1.722 9.458,2.604 14.363,2.604c20.221,0 37.561,-14.994 40.479,-35.003l12.485,-85.612l45.276,-215.063l-2.83,-107.531l-90.553,-0c30.887,79.979 15.565,197.949 -11.319,325.424Z" style="fill:#ffb8b8;fill-rule:nonzero;"/><path d="M3368.98,1322.81l121.68,-0l-17.662,-133.447c-4.862,-36.735 -28.083,-68.583 -61.572,-84.446l-42.447,217.893Z" style="fill:#402596;fill-rule:nonzero;"/><path d="M3326.59,851.294c3.657,-24.452 -3.27,-49.34 -19.033,-68.388c-15.449,-18.282 -41.346,-33.246 -84.31,-26.187c-93.739,15.403 -120.77,93.439 -111.586,113.064c9.184,19.625 37.333,65.119 37.333,65.119c0,-0 -20.659,-45.034 1.763,-54.201c22.423,-9.166 109.197,-45.278 139.484,-29.01c17.431,8.753 28.855,26.252 29.855,45.732l6.494,-46.129Z" style="fill:#2f2e41;fill-rule:nonzero;"/><path d="M1776.71,474.429l-36.408,18.473c-41.936,-82.572 -97.494,-157.487 -164.335,-221.589c-328.256,-315.574 -852.05,-305.257 -1167.62,22.999c-315.574,328.257 -305.257,852.051 22.999,1167.62c62.476,60.183 134.052,110.14 212.088,148.028l-17.81,36.736c-298.065,-144.729 -488.093,-448.243 -488.093,-779.587c0,-475.418 391.21,-866.628 866.628,-866.628c325.694,0 624.977,183.603 772.556,473.942Z" style="fill:#e6e6e6;fill-rule:nonzero;"/><path d="M544.968,1233.96c-52.157,54.253 -81.317,126.66 -81.317,201.917c0,159.829 131.52,291.349 291.349,291.349c79.227,-0 155.123,-32.317 210.031,-89.431l50.158,-52.174l-420.063,-403.834l-50.158,52.173Z" style="fill:#e6e6e6;fill-rule:nonzero;"/><path d="M566.981,1152.15c-24.654,25.703 -23.838,67.123 1.809,91.836l385.28,370.395c12.095,11.628 28.237,18.128 45.014,18.128c35.63,0 64.95,-29.319 64.95,-64.95c-0,-17.662 -7.204,-34.582 -19.937,-46.822l-385.28,-370.396c-25.703,-24.654 -67.124,-23.838 -91.836,1.809Z" style="fill:#535461;fill-rule:nonzero;"/><path d="M1722.54,849.84l50.158,-52.173c52.157,-54.253 81.316,-126.66 81.316,-201.917c0,-159.829 -131.519,-291.349 -291.348,-291.349c-79.227,0 -155.124,32.317 -210.031,89.432l-50.158,52.173l420.063,403.834Z" style="fill:#e6e6e6;fill-rule:nonzero;"/><path d="M1271.76,419.05c-24.654,25.703 -23.838,67.123 1.809,91.835l385.28,370.396c12.092,11.608 28.219,18.096 44.981,18.096c35.63,0 64.95,-29.319 64.95,-64.95c-0,-17.646 -7.192,-34.552 -19.904,-46.791l-385.281,-370.395c-25.703,-24.654 -67.123,-23.838 -91.835,1.809Z" style="fill:#535461;fill-rule:nonzero;"/><path d="M1434.29,1275.03l-0,-30.094c-0,0 131.32,-73.868 238.018,0l0,27.358l-238.018,2.736Z" style="fill:#535461;fill-rule:nonzero;"/><path d="M2629.85,1275.03l-0,-30.094c-0,0 131.32,-73.868 238.018,0l0,27.358l-238.018,2.736Z" style="fill:#535461;fill-rule:nonzero;"/><path d="M1828.25,1272.29l-128.585,-0c-0,-0 -32.831,-38.302 -142.264,-35.566c-109.434,2.735 -131.321,35.566 -131.321,35.566c-0,-0 -108.066,72.5 -132.689,162.782c0,0 -132.688,398.066 -135.424,709.953c-2.736,311.886 117.641,355.66 180.566,363.867c62.924,8.208 175.094,-2.736 284.528,-279.056l46.509,-161.415c0,0 8.208,-95.755 106.698,-35.566c98.491,60.189 186.038,-32.83 186.038,-32.83l369.339,-0c0,-0 123.113,76.604 235.283,16.415c0,-0 43.774,-57.453 84.811,136.792c0,0 125.849,399.434 320.094,358.396c194.246,-41.038 172.359,-374.811 172.359,-374.811c-0,0 -25.991,-510.235 -132.689,-690.801c0,-0 -102.594,-187.406 -170.99,-195.613c-0,-0 -147.736,-27.359 -205.189,-2.736l-32.83,27.358l-774.244,-2.735Z" style="fill:#e6e6e6;fill-rule:nonzero;"/><circle cx="1530.04" cy="1540.4" r="238.019" style="fill:#535461;"/><circle cx="2772.12" cy="1540.4" r="238.019" style="fill:#535461;"/><path d="M1571.52,1487.33l-31.736,28.07c-5.534,4.872 -13.918,4.872 -19.452,-0l-31.791,-28.07c-3.143,-2.769 -4.956,-6.754 -4.979,-10.943l0,-77.233c0.015,-8.064 6.655,-14.692 14.719,-14.692l63.608,0c8.06,-0.015 14.704,6.605 14.719,14.664l0,77.206c-0.035,4.225 -1.89,8.237 -5.088,10.998Z" style="fill:#e6e6e6;fill-rule:nonzero;"/><path d="M1571.52,1593.45l-31.736,-28.043c-5.534,-4.872 -13.918,-4.872 -19.452,0l-31.791,28.07c-3.143,2.769 -4.956,6.755 -4.979,10.943l0,77.151c-0.015,8.06 6.605,14.704 14.664,14.719l63.664,0c8.059,0.015 14.703,-6.604 14.718,-14.664l0,-77.178c-0.034,-4.225 -1.89,-8.237 -5.088,-10.998Z" style="fill:#e6e6e6;fill-rule:nonzero;"/><path d="M1477,1581.93l28.07,-31.791c4.872,-5.534 4.872,-13.918 -0,-19.452l-28.07,-31.79c-2.771,-3.14 -6.755,-4.953 -10.943,-4.979l-77.151,-0c-8.064,0.015 -14.692,6.654 -14.692,14.719l0,63.608c-0.015,8.059 6.605,14.704 14.664,14.719l77.206,-0c4.188,-0.045 8.163,-1.878 10.916,-5.034Z" style="fill:#e6e6e6;fill-rule:nonzero;"/><path d="M1583.12,1581.93l-28.015,-31.818c-4.884,-5.529 -4.884,-13.923 -0,-19.452l28.069,-31.791c2.77,-3.143 6.755,-4.956 10.944,-4.979l77.151,0c8.059,-0.015 14.703,6.605 14.718,14.664l0,63.664c0.015,8.059 -6.604,14.704 -14.664,14.719l-77.178,-0c-4.222,-0.007 -8.242,-1.833 -11.025,-5.007Z" style="fill:#e6e6e6;fill-rule:nonzero;"/><circle cx="1852.87" cy="1800.31" r="172.358" style="fill:#535461;"/><circle cx="2449.29" cy="1800.31" r="172.358" style="fill:#535461;"/><circle cx="1852.87" cy="1800.31" r="114.906" style="fill:#e6e6e6;"/><path d="M1852.87,1879.65c-0,0 -0,0 -0,0c-43.525,0 -79.34,-35.815 -79.34,-79.339c-0,-43.525 35.815,-79.34 79.34,-79.34c43.524,-0 79.339,35.815 79.339,79.34c0,-0 0,-0 0,-0c-0.049,43.505 -35.834,79.29 -79.339,79.339Zm-0,-153.207c-40.523,-0 -73.868,33.345 -73.868,73.868c-0,40.522 33.345,73.867 73.868,73.867c40.522,0 73.868,-33.345 73.868,-73.867c-0.047,-40.506 -33.363,-73.822 -73.868,-73.868Z" style="fill:#535461;fill-rule:nonzero;"/><circle cx="2449.29" cy="1800.31" r="114.906" style="fill:#e6e6e6;"/><path d="M2449.29,1879.65c0,0 0,0 0,0c-43.524,0 -79.339,-35.815 -79.339,-79.339c-0,-43.525 35.815,-79.34 79.339,-79.34c43.524,-0 79.34,35.815 79.34,79.34c-0,-0 -0,-0 -0,-0c-0.05,43.505 -35.834,79.289 -79.34,79.339Zm0,-153.207c-40.523,-0 -73.868,33.345 -73.868,73.868c0,40.522 33.345,73.867 73.868,73.867c40.523,0 73.868,-33.345 73.868,-73.867c-0.046,-40.506 -33.363,-73.822 -73.868,-73.868Z" style="fill:#535461;fill-rule:nonzero;"/><circle cx="2156.55" cy="1819.46" r="49.245" style="fill:#535461;"/><circle cx="2081.29" cy="1655.09" r="10.752" style="fill:#535461;"/><circle cx="2121.56" cy="1655.09" r="10.752" style="fill:#535461;"/><circle cx="2116.2" cy="1706.11" r="10.752" style="fill:#535461;"/><circle cx="2153.82" cy="1707.29" r="10.943" style="fill:#535461;"/><circle cx="2191.38" cy="1706.11" r="10.752" style="fill:#535461;"/><circle cx="2100.08" cy="1681.96" r="10.752" style="fill:#535461;"/><circle cx="2134.66" cy="1682.67" r="10.943" style="fill:#535461;"/><circle cx="2170.23" cy="1682.67" r="10.943" style="fill:#535461;"/><circle cx="2207.49" cy="1681.96" r="10.752" style="fill:#535461;"/><circle cx="2153.82" cy="1655.31" r="10.943" style="fill:#535461;"/><circle cx="2192.12" cy="1655.31" r="10.943" style="fill:#535461;"/><circle cx="2223.61" cy="1655.09" r="10.752" style="fill:#535461;"/><path d="M1747.54,1295.61c-10.467,0.011 -19.076,8.621 -19.088,19.088l0,57.454c0.012,10.467 8.621,19.076 19.088,19.088l13.68,-0c10.467,-0.012 19.076,-8.621 19.088,-19.088l-0,-57.454c-0.012,-10.467 -8.621,-19.077 -19.088,-19.088l-13.68,-0Z" style="fill:#535461;fill-rule:nonzero;"/><path d="M2546.41,1295.61c-10.467,0.011 -19.077,8.621 -19.088,19.088l0,57.454c0.011,10.467 8.621,19.077 19.088,19.088l13.68,-0c10.467,-0.011 19.077,-8.621 19.088,-19.088l-0,-57.454c-0.011,-10.467 -8.621,-19.077 -19.088,-19.088l-13.68,-0Z" style="fill:#535461;fill-rule:nonzero;"/><circle cx="2774.85" cy="1395.4" r="65.66" style="fill:#e6e6e6;"/><circle cx="2635.33" cy="1534.93" r="65.66" style="fill:#e6e6e6;"/><circle cx="2919.85" cy="1526.72" r="65.66" style="fill:#e6e6e6;"/><circle cx="2785.8" cy="1671.72" r="65.66" style="fill:#e6e6e6;"/><path d="M1871.34,1257.31c-30.345,0.035 -55.304,24.994 -55.339,55.339l0,244.857c0.035,30.344 24.994,55.304 55.339,55.338l562.215,0c30.345,-0.034 55.304,-24.994 55.338,-55.338l0,-244.857c-0.034,-30.345 -24.993,-55.304 -55.338,-55.339l-562.215,0Z" style="fill:#535461;fill-rule:nonzero;"/><path d="M2819.46,1425.5l-89.041,-0l42.986,-73.688l46.055,73.688Zm-79.513,-5.472l69.638,-0l-36.02,-57.633l-33.618,57.633Z" style="fill:#535461;fill-rule:nonzero;"/><path d="M2672.26,1567.76l-73.868,-0l-0,-65.661l73.868,0l-0,65.661Zm-68.396,-5.472l62.924,-0l0,-54.717l-62.924,-0l-0,54.717Z" style="fill:#535461;fill-rule:nonzero;"/><path d="M2919.85,1567.76c-22.513,-0 -41.038,-18.525 -41.038,-41.038c0,-22.512 18.525,-41.037 41.038,-41.037c22.512,-0 41.037,18.524 41.037,41.037c-0.025,22.503 -18.534,41.012 -41.037,41.038Zm-0,-76.604c-0,-0 -0,-0 -0,-0c-19.511,-0 -35.566,16.055 -35.566,35.566c-0,19.511 16.055,35.566 35.566,35.566c19.511,-0 35.566,-16.055 35.566,-35.566c-0,-0 -0,-0 -0,-0c-0.022,-19.503 -16.064,-35.544 -35.566,-35.566Z" style="fill:#535461;fill-rule:nonzero;"/><path d="M2756.27,1639.01l-3.868,3.869l61.556,61.556l3.869,-3.868l-61.557,-61.557Z" style="fill:#535461;"/><path d="M2815.36,1638.97l-62.917,60.196l3.783,3.954l62.918,-60.196l-3.784,-3.954Z" style="fill:#535461;"/><path d="M581.548,632.143c-149.377,41.182 -312.952,72.183 -371.563,24.088c32.09,-53.423 50.599,-106.079 52.169,-157.778c0.354,-23.646 9.941,-46.242 26.699,-62.928c22.475,-21.711 53.757,-31.877 84.701,-27.523l38.767,5.44c1.305,0.183 2.604,0.391 3.895,0.624c38.055,7.209 67.478,38.046 72.895,76.397c8.168,56.06 35.633,104.592 92.437,141.68Z" style="fill:#2f2e41;fill-rule:nonzero;"/><path d="M725.64,1163.99l58.072,11.974c14.12,2.912 24.342,15.456 24.342,29.873c-0,4.152 -0.848,8.261 -2.492,12.074c-4.811,11.162 -15.855,18.427 -28.009,18.427c-5.642,0 -11.174,-1.565 -15.98,-4.52l-88.83,-54.635l-150.881,-354.692l78.149,-22.605l125.629,364.104Z" style="fill:#a0616a;fill-rule:nonzero;"/><path d="M311.954,1629.42l-43.971,12.787l-33.283,-68.737l33.846,-17.638l43.408,73.588Z" style="fill:#a0616a;fill-rule:nonzero;"/><path d="M289.613,1923.93l-53.951,-14.283l8.446,-92.688l46.43,2.859l-0.925,104.112Z" style="fill:#a0616a;fill-rule:nonzero;"/><path d="M295.239,1565.16l-57.141,37.604l-219.768,-248.585c-7.914,-8.951 -12.285,-20.496 -12.285,-32.443c0,-17.217 9.078,-33.216 23.857,-42.047l273.777,-163.589l41.933,120.457l-142.557,133.778l92.184,194.825Z" style="fill:#2f2e41;fill-rule:nonzero;"/><path d="M343.36,1695.28c-0.144,0.186 -0.287,0.372 -0.431,0.558c-3.652,21.383 -10.066,40.886 -24.39,55.007c-8.749,19.732 -31.175,29.86 -51.762,23.378c-19.362,-6.096 -31.813,-25.22 -29.557,-45.392l10.678,-95.439c25.613,-5.888 45.148,-20.453 55.035,-48.792l24.893,16.955c17.993,12.158 28.802,32.507 28.802,54.222c0,14.259 -4.661,28.135 -13.268,39.503Z" style="fill:#2f2e41;fill-rule:nonzero;"/><circle cx="370.448" cy="523.757" r="87.948" style="fill:#a0616a;"/><path d="M446.611,664.35l-138.649,114.829l-10.799,-47.267l24.201,-36.889c6.716,-36.194 2.38,-76.106 -9.161,-118.442l90.459,0.083c3.905,34.212 17.225,64.058 43.949,87.686Z" style="fill:#a0616a;fill-rule:nonzero;"/><path d="M485.646,965.558l-187.177,57.016l-14.563,-66.572c-35.077,-47.099 -50.326,-90.088 -27.377,-125.16l-11.548,-52.796c33.128,-26.083 59.179,-52.771 73.484,-80.46l115.163,-45l84.661,5.209l25,83.778l-57.643,223.985Z" style="fill:#402596;fill-rule:nonzero;"/><path d="M618.623,809.259c-39.893,-0.422 -78.951,11.545 -111.76,34.244l11.426,-185.708c23.569,3.147 43.792,18.543 53.099,40.423l47.235,111.041Z" style="fill:#402596;fill-rule:nonzero;"/><path d="M294.653,1842l-59.41,-14.621l8.745,-504.804l79.776,-87.361l-17.858,-110.753l-11.555,-124.071l194.867,-48.319c65.865,119.595 105.676,228.33 47.564,296.249l-242.129,593.68Z" style="fill:#2f2e41;fill-rule:nonzero;"/><path d="M281.008,2012.44c-0.267,0.105 -0.533,0.209 -0.801,0.312c-17.25,20.031 -36.204,36.364 -60.034,42.106c-21.536,15.104 -51.316,11.585 -68.738,-8.121c-16.385,-18.533 -17.368,-46.325 -2.334,-65.969l71.127,-92.939c30.443,9.948 59.994,7.017 88.127,-16.358l15.335,33.347c4.887,10.523 7.42,21.987 7.42,33.59c-0,32.53 -19.904,61.94 -50.102,74.032Z" style="fill:#2f2e41;fill-rule:nonzero;"/><path d="M63.983,1224.71l-52.146,44.647c-7.505,6.425 -11.831,15.825 -11.831,25.704c-0,13.278 7.815,25.38 19.917,30.843c16.129,7.28 35.383,0.742 43.745,-14.853l37.709,-70.334l172.932,-315.579l-65.04,-12.226l-145.286,311.798Z" style="fill:#a0616a;fill-rule:nonzero;"/><path d="M284.729,934.006c-33.778,-10.196 -65.417,-16.201 -89.955,-8.276c5.144,-63.651 15.745,-120.512 50.207,-147.684l48.99,5.755l-9.242,150.205Z" style="fill:#402596;fill-rule:nonzero;"/><path d="M468.629,503.363l-188.105,-11.574l2.315,-37.621c65.663,-44.275 128.365,-40.417 188.104,11.574l-2.314,37.621Z" style="fill:#2f2e41;fill-rule:nonzero;"/></svg>